# xmcd CD Database Entry
#
# Track frame offsets:
# 150
# 30538
# 52138
# 65521
# 95436
# 116554
# 145797
# 168641
# 189823
# 203071
#
# Disc length: 3339 seconds
#
# Revision: 1
# Processed by: cddbd v1.4b42PL1 Copyright (c) Steve Scherf et al.
# Submitted via: tcd 2.0b
#
DISCID=890d090a
DTITLE=Real de catorce - Nueve
DYEAR=1900
DGENRE=
TTITLE0=Déjame tranquilo
TTITLE1=Agua con sal
TTITLE2=El gárgaras
TTITLE3=Sola
TTITLE4=Un buen café
TTITLE5=El misterio de las cosas
TTITLE6=Al poeta
TTITLE7=Adiós, partí
TTITLE8=Mi Susy
TTITLE9=No soy el hombre de tu vida
EXTD=
EXTT0=
EXTT1=
EXTT2=
EXTT3=
EXTT4=
EXTT5=
EXTT6=
EXTT7=
EXTT8=
EXTT9=
PLAYORDER=
